<?xml version="1.0" encoding="UTF-8" standalone="no"?>
<!DOCTYPE svg PUBLIC "-//W3C//DTD SVG 1.1//EN" "http://www.w3.org/Graphics/SVG/1.1/DTD/svg11.dtd">
<!-- Создано Microsoft Visio, экспорт SVG 5Сгорание.svg Страница-1 -->
<svg xmlns="http://www.w3.org/2000/svg" xmlns:xlink="http://www.w3.org/1999/xlink" xmlns:ev="http://www.w3.org/2001/xml-events"
		xmlns:v="http://schemas.microsoft.com/visio/2003/SVGExtensions/" width="11.6929in" height="16.0354in"
		viewBox="0 0 841.889 1154.55" xml:space="preserve" color-interpolation-filters="sRGB" class="st25">
	<v:documentProperties v:langID="1049">
		<v:userDefs>
			<v:ud v:nameU="msvSubprocessMaster" v:prompt="" v:val="VT4(Rectangle)"/>
			<v:ud v:nameU="msvNoAutoConnect" v:val="VT0(1):26"/>
		</v:userDefs>
	</v:documentProperties>

	<style type="text/css">
	<![CDATA[
		.st1 {visibility:visible}
		.st2 {fill:#5b9bd5;fill-opacity:0.25;filter:url(#filter_2);stroke:#5b9bd5;stroke-opacity:0.25}
		.st3 {fill:#ffd965;stroke:#000000;stroke-width:0.749999}
		.st4 {fill:#000000;font-family:Calibri;font-size:1.5em}
		.st5 {font-size:1em}
		.st6 {fill:#4f87bb;stroke:#40709c;stroke-width:0.749999}
		.st7 {fill:#ffffff;font-family:Calibri;font-size:1.99999em}
		.st8 {fill:#5b9bd5;fill-opacity:0.22;filter:url(#filter_2);stroke:#5b9bd5;stroke-opacity:0.22}
		.st9 {fill:#d8d8d8;stroke:#c7c8c8;stroke-width:0.25}
		.st10 {fill:#000000;font-family:Calibri;font-size:1.99999em}
		.st11 {fill:#00b050;stroke:none;stroke-linecap:round;stroke-linejoin:round;stroke-width:0.75}
		.st12 {fill:#2e75b5;stroke:#c7c8c8;stroke-width:0.25}
		.st13 {fill:#feffff;font-family:Calibri;font-size:1.99999em;font-weight:bold}
		.st14 {fill:#a5a5a5;stroke:#c7c8c8;stroke-width:0.25}
		.st15 {fill:#feffff;font-family:Calibri;font-size:1.5em;font-weight:bold}
		.st16 {fill:#7f7f7f;stroke:none;stroke-linecap:round;stroke-linejoin:round;stroke-width:0.75}
		.st17 {fill:#bf4040;stroke:none;stroke-linecap:round;stroke-linejoin:round;stroke-width:0.75}
		.st18 {fill:#31859b}
		.st19 {stroke:none;stroke-linecap:round;stroke-linejoin:round;stroke-width:0.75}
		.st20 {stroke:#000000;stroke-linecap:round;stroke-linejoin:round;stroke-width:0.24}
		.st21 {fill:#ffffff;stroke:none;stroke-linecap:round;stroke-linejoin:round;stroke-width:0.24;visibility:hidden}
		.st22 {fill:#dde2cd}
		.st23 {fill:#fee599;stroke:#000000;stroke-linecap:round;stroke-linejoin:round;stroke-width:0.24}
		.st24 {fill:#000000;font-family:Calibri;font-size:1.00001em}
		.st25 {fill:none;fill-rule:evenodd;font-size:12px;overflow:visible;stroke-linecap:square;stroke-miterlimit:3}
	]]>
	</style>

	<defs id="Filters">
		<filter id="filter_2">
			<feGaussianBlur stdDeviation="2"/>
		</filter>
	</defs>
	<g v:mID="0" v:index="1" v:groupContext="foregroundPage">
		<v:userDefs>
			<v:ud v:nameU="msvThemeOrder" v:val="VT0(0):26"/>
		</v:userDefs>
		<title>Страница-1</title>
		<v:pageProperties v:drawingScale="0.0393701" v:pageScale="0.0393701" v:drawingUnits="24" v:shadowOffsetX="8.50393"
				v:shadowOffsetY="-8.50393"/>
		<v:layer v:name="Соединительная линия" v:index="0"/>
		<g id="shape18-1" v:mID="18" v:groupContext="shape" transform="translate(779.555,1693.13) rotate(179.999)">
			<title>Простая стрелка</title>
			<desc>1 2 3 4 5 6 7 8 9 10</desc>
			<v:userDefs>
				<v:ud v:nameU="visVersion" v:val="VT0(15):26"/>
				<v:ud v:nameU="ArrowType" v:prompt="" v:val="VT0(2):26"/>
			</v:userDefs>
			<v:textBlock v:margins="rect(3.99999,3.99999,3.99999,3.99999)" v:tabSpace="42.5196"/>
			<v:textRect cx="329.215" cy="1126.2" width="658.43" height="0" transform="rotate(-180)"/>
			<g id="shadow18-2" v:groupContext="shadow" v:shadowOffsetX="0.345598" v:shadowOffsetY="-1.97279" v:shadowType="1"
					transform="matrix(1,0,0,1,-0.345563,-1.97279)" class="st1">
				<path d="M0 1126.2 L42.52 1097.85 L42.52 1112.03 L658.43 1112.03 L658.43 1126.2 L658.43 1140.37 L42.52 1140.37 L42.52
							 1154.55 L0 1126.2 Z" class="st2"/>
			</g>
			<path d="M0 1126.2 L42.52 1097.85 L42.52 1112.03 L658.43 1112.03 L658.43 1126.2 L658.43 1140.37 L42.52 1140.37 L42.52
						 1154.55 L0 1126.2 Z" class="st3"/>
			<text x="-654.43" y="-1120.8" transform="rotate(180)" class="st4" v:langID="1049"><v:paragraph/><v:tabList/>1<v:tabChar/><tspan
						dx="1.855em" class="st5">     </tspan>2<v:tabChar/><tspan dx="0.725em" class="st5">          </tspan>3<v:tabChar/><tspan
						dx="1.957em" class="st5">    </tspan>4<v:tabChar/><tspan dx="0.951em" class="st5">       </tspan>5<v:tabChar/><v:tabChar/><tspan
						dx="2.635em" class="st5">  </tspan>6<v:tabChar/><tspan dx="1.403em" class="st5">      </tspan>7              8<v:tabChar/><tspan
						dx="1.551em" class="st5">      </tspan>9             10</text>		</g>
		<g id="shape32-14" v:mID="32" v:groupContext="shape" transform="translate(1211.24,219.116) rotate(90)">
			<title>Простая стрелка.291</title>
			<desc>1 2 3 4 5 6 7</desc>
			<v:userDefs>
				<v:ud v:nameU="visVersion" v:val="VT0(15):26"/>
				<v:ud v:nameU="ArrowType" v:prompt="" v:val="VT0(2):26"/>
			</v:userDefs>
			<v:textBlock v:margins="rect(3.99999,3.99999,3.99999,3.99999)" v:tabSpace="42.5196"/>
			<v:textRect cx="159.733" cy="1126.2" width="319.47" height="0" transform="rotate(-180)"/>
			<g id="shadow32-15" v:groupContext="shadow" v:shadowOffsetX="0.345598" v:shadowOffsetY="-1.97279" v:shadowType="1"
					transform="matrix(1,0,0,1,1.97279,-0.345598)" class="st1">
				<path d="M0 1126.2 L45.64 1097.85 L45.64 1112.03 L319.47 1112.03 L319.47 1126.2 L319.47 1140.37 L45.64 1140.37 L45.64
							 1154.55 L0 1126.2 Z" class="st2"/>
			</g>
			<path d="M0 1126.2 L45.64 1097.85 L45.64 1112.03 L319.47 1112.03 L319.47 1126.2 L319.47 1140.37 L45.64 1140.37 L45.64
						 1154.55 L0 1126.2 Z" class="st3"/>
			<text x="-315.47" y="-1120.8" transform="rotate(180)" class="st4" v:langID="1049"><v:paragraph/><v:tabList/>0<v:tabChar/><tspan
						dx="1.855em" class="st5">1<v:tabChar/></tspan><tspan dx="1.855em" class="st5">2<v:tabChar/></tspan><tspan
						dx="1.855em" class="st5">3<v:tabChar/></tspan><tspan dx="1.855em" class="st5">4<v:tabChar/></tspan><tspan
						dx="1.855em" class="st5">5<v:tabChar/></tspan><tspan dx="1.855em" class="st5">6<v:tabChar/></tspan><tspan
						dx="1.855em" class="st5">7</tspan></text>		</g>
		<g id="shape39-27" v:mID="39" v:groupContext="shape" transform="translate(63.7794,-941.954)">
			<title>Прямоугольник.300</title>
			<desc>Работа № n</desc>
			<v:userDefs>
				<v:ud v:nameU="visVersion" v:val="VT0(15):26"/>
			</v:userDefs>
			<v:textBlock v:margins="rect(3.99999,3.99999,3.99999,3.99999)" v:tabSpace="42.5196"/>
			<v:textRect cx="361.416" cy="1134.18" width="722.84" height="40.7479"/>
			<g id="shadow39-28" v:groupContext="shadow" v:shadowOffsetX="0.345598" v:shadowOffsetY="-1.97279" v:shadowType="1"
					transform="matrix(1,0,0,1,0.345598,1.97279)" class="st1">
				<rect x="0" y="1113.8" width="722.834" height="40.7479" class="st2"/>
			</g>
			<rect x="0" y="1113.8" width="722.834" height="40.7479" class="st6"/>
			<text x="302.32" y="1141.38" class="st7" v:langID="1049"><v:paragraph v:horizAlign="1"/><v:tabList/>Работа № n</text>		</g>
		<g id="shape40-33" v:mID="40" v:groupContext="shape" transform="translate(1900.42,171.85) rotate(90)">
			<title>Квадрат</title>
			<desc>&#62;&#62;</desc>
			<v:userDefs>
				<v:ud v:nameU="visVersion" v:val="VT0(15):26"/>
			</v:userDefs>
			<v:textBlock v:margins="rect(3.99999,3.99999,3.99999,3.99999)" v:tabSpace="42.5196"/>
			<v:textRect cx="20.374" cy="1134.18" width="40.75" height="40.7479"/>
			<g id="shadow40-34" v:groupContext="shadow" v:shadowOffsetX="0.345598" v:shadowOffsetY="-1.97279" v:shadowType="1"
					transform="matrix(1,0,0,1,1.97279,-0.345598)" class="st1">
				<rect x="0" y="1113.8" width="40.7479" height="40.7479" class="st8"/>
			</g>
			<rect x="0" y="1113.8" width="40.7479" height="40.7479" class="st9"/>
			<text x="8.42" y="1141.38" class="st10" v:langID="1049"><v:paragraph v:horizAlign="1"/><v:tabList/>&#62;&#62;</text>		</g>
		<g id="shape80-39" v:mID="80" v:groupContext="shape" transform="translate(1464.23,318.328) rotate(90)">
			<title>Линия графика.80</title>
			<v:userDefs>
				<v:ud v:nameU="visVersion" v:val="VT0(15):26"/>
			</v:userDefs>
			<path d="M0 1154.55 L42.52 1154.55 A2.12598 2.12598 -180 1 0 42.52 1150.3 L0 1150.3 A2.12598 2.12598 -180 1 0 0 1154.55
						 Z" class="st11"/>
		</g>
		<g id="shape83-41" v:mID="83" v:groupContext="shape" transform="translate(311.811,-791.575)">
			<title>Линия графика.83</title>
			<v:userDefs>
				<v:ud v:nameU="visVersion" v:val="VT0(15):26"/>
			</v:userDefs>
			<path d="M0 1154.55 L56.69 1154.55 A2.12598 2.12598 -180 0 0 56.69 1150.3 L0 1150.3 A2.12598 2.12598 -180 1 0 0 1154.55
						 Z" class="st11"/>
		</g>
		<g id="shape84-43" v:mID="84" v:groupContext="shape" transform="translate(1520.93,360.848) rotate(90)">
			<title>Линия графика.84</title>
			<v:userDefs>
				<v:ud v:nameU="visVersion" v:val="VT0(15):26"/>
			</v:userDefs>
			<path d="M0 1154.55 L42.52 1154.55 A2.12598 2.12598 -180 0 0 42.52 1150.3 L0 1150.3 A2.12598 2.12598 -180 1 0 0 1154.55
						 Z" class="st11"/>
		</g>
		<g id="shape85-45" v:mID="85" v:groupContext="shape" transform="translate(368.504,-749.055)">
			<title>Линия графика.85</title>
			<v:userDefs>
				<v:ud v:nameU="visVersion" v:val="VT0(15):26"/>
			</v:userDefs>
			<path d="M0 1154.55 L56.69 1154.55 A2.12598 2.12598 -180 0 0 56.69 1150.3 L0 1150.3 A2.12598 2.12598 -180 1 0 0 1154.55
						 Z" class="st11"/>
		</g>
		<g id="shape91-47" v:mID="91" v:groupContext="shape" transform="translate(65.55,-1055.2)">
			<title>Скругленный прямоугольник</title>
			<desc>Календарь</desc>
			<v:userDefs>
				<v:ud v:nameU="CTypeTopLeftSnip" v:prompt="" v:val="VT0(0):5"/>
				<v:ud v:nameU="CTypeTopRightSnip" v:prompt="" v:val="VT0(0):5"/>
				<v:ud v:nameU="CTypeBotLeftSnip" v:prompt="" v:val="VT0(0):5"/>
				<v:ud v:nameU="CTypeBotRightSnip" v:prompt="" v:val="VT0(0):5"/>
				<v:ud v:nameU="CornerLockHoriz" v:prompt="" v:val="VT0(1):5"/>
				<v:ud v:nameU="CornerLockVert" v:prompt="" v:val="VT0(1):5"/>
				<v:ud v:nameU="CornerLockDiag" v:prompt="" v:val="VT0(0):5"/>
				<v:ud v:nameU="TopLeftOffset" v:prompt="" v:val="VT0(0):26"/>
				<v:ud v:nameU="TopRightOffset" v:prompt="" v:val="VT0(0):26"/>
				<v:ud v:nameU="BotLeftOffset" v:prompt="" v:val="VT0(0):26"/>
				<v:ud v:nameU="BotRightOffset" v:prompt="" v:val="VT0(0):26"/>
				<v:ud v:nameU="visVersion" v:prompt="" v:val="VT0(15):26"/>
			</v:userDefs>
			<v:textBlock v:margins="rect(3.99999,3.99999,3.99999,3.99999)" v:tabSpace="42.5196"/>
			<v:textRect cx="109.843" cy="1104.94" width="219.69" height="99.2125"/>
			<g id="shadow91-48" v:groupContext="shadow" v:shadowOffsetX="0.345598" v:shadowOffsetY="-1.97279" v:shadowType="1"
					transform="matrix(1,0,0,1,0.345598,1.97279)" class="st1">
				<path d="M21.97 1154.55 L197.72 1154.55 A21.9681 21.9681 -180 0 0 219.69 1132.58 L219.69 1077.31 A21.9681 21.9681
							 -180 0 0 197.72 1055.34 L21.97 1055.34 A21.9681 21.9681 -180 0 0 -0 1077.31 L0 1132.58 A21.9681 21.9681
							 -180 0 0 21.97 1154.55 Z" class="st8"/>
			</g>
			<path d="M21.97 1154.55 L197.72 1154.55 A21.9681 21.9681 -180 0 0 219.69 1132.58 L219.69 1077.31 A21.9681 21.9681 -180
						 0 0 197.72 1055.34 L21.97 1055.34 A21.9681 21.9681 -180 0 0 -0 1077.31 L0 1132.58 A21.9681 21.9681 -180
						 0 0 21.97 1154.55 Z" class="st12"/>
			<text x="52.98" y="1112.14" class="st13" v:langID="1049"><v:paragraph v:horizAlign="1"/><v:tabList/>Календарь</text>		</g>
		<g id="shape92-53" v:mID="92" v:groupContext="shape" transform="translate(313.577,-1055.2)">
			<title>Скругленный прямоугольник.2</title>
			<desc>Сетевой график</desc>
			<v:userDefs>
				<v:ud v:nameU="CTypeTopLeftSnip" v:prompt="" v:val="VT0(0):5"/>
				<v:ud v:nameU="CTypeTopRightSnip" v:prompt="" v:val="VT0(0):5"/>
				<v:ud v:nameU="CTypeBotLeftSnip" v:prompt="" v:val="VT0(0):5"/>
				<v:ud v:nameU="CTypeBotRightSnip" v:prompt="" v:val="VT0(0):5"/>
				<v:ud v:nameU="CornerLockHoriz" v:prompt="" v:val="VT0(1):5"/>
				<v:ud v:nameU="CornerLockVert" v:prompt="" v:val="VT0(1):5"/>
				<v:ud v:nameU="CornerLockDiag" v:prompt="" v:val="VT0(0):5"/>
				<v:ud v:nameU="TopLeftOffset" v:prompt="" v:val="VT0(0):26"/>
				<v:ud v:nameU="TopRightOffset" v:prompt="" v:val="VT0(0):26"/>
				<v:ud v:nameU="BotLeftOffset" v:prompt="" v:val="VT0(0):26"/>
				<v:ud v:nameU="BotRightOffset" v:prompt="" v:val="VT0(0):26"/>
				<v:ud v:nameU="visVersion" v:prompt="" v:val="VT0(15):26"/>
			</v:userDefs>
			<v:textBlock v:margins="rect(3.99999,3.99999,3.99999,3.99999)" v:tabSpace="42.5196"/>
			<v:textRect cx="109.843" cy="1104.94" width="219.69" height="99.2125"/>
			<g id="shadow92-54" v:groupContext="shadow" v:shadowOffsetX="0.345598" v:shadowOffsetY="-1.97279" v:shadowType="1"
					transform="matrix(1,0,0,1,0.345598,1.97279)" class="st1">
				<path d="M21.97 1154.55 L197.72 1154.55 A21.9681 21.9681 -180 0 0 219.69 1132.58 L219.69 1077.31 A21.9681 21.9681
							 -180 0 0 197.72 1055.34 L21.97 1055.34 A21.9681 21.9681 -180 0 0 -0 1077.31 L0 1132.58 A21.9681 21.9681
							 -180 0 0 21.97 1154.55 Z" class="st8"/>
			</g>
			<path d="M21.97 1154.55 L197.72 1154.55 A21.9681 21.9681 -180 0 0 219.69 1132.58 L219.69 1077.31 A21.9681 21.9681 -180
						 0 0 197.72 1055.34 L21.97 1055.34 A21.9681 21.9681 -180 0 0 -0 1077.31 L0 1132.58 A21.9681 21.9681 -180
						 0 0 21.97 1154.55 Z" class="st12"/>
			<text x="27.62" y="1112.14" class="st13" v:langID="1049"><v:paragraph v:horizAlign="1"/><v:tabList/>Сетевой график</text>		</g>
		<g id="shape93-59" v:mID="93" v:groupContext="shape" transform="translate(565.154,-1055.2)">
			<title>Скругленный прямоугольник.3</title>
			<desc>График сгорания</desc>
			<v:userDefs>
				<v:ud v:nameU="CTypeTopLeftSnip" v:prompt="" v:val="VT0(0):5"/>
				<v:ud v:nameU="CTypeTopRightSnip" v:prompt="" v:val="VT0(0):5"/>
				<v:ud v:nameU="CTypeBotLeftSnip" v:prompt="" v:val="VT0(0):5"/>
				<v:ud v:nameU="CTypeBotRightSnip" v:prompt="" v:val="VT0(0):5"/>
				<v:ud v:nameU="CornerLockHoriz" v:prompt="" v:val="VT0(1):5"/>
				<v:ud v:nameU="CornerLockVert" v:prompt="" v:val="VT0(1):5"/>
				<v:ud v:nameU="CornerLockDiag" v:prompt="" v:val="VT0(0):5"/>
				<v:ud v:nameU="TopLeftOffset" v:prompt="" v:val="VT0(0):26"/>
				<v:ud v:nameU="TopRightOffset" v:prompt="" v:val="VT0(0):26"/>
				<v:ud v:nameU="BotLeftOffset" v:prompt="" v:val="VT0(0):26"/>
				<v:ud v:nameU="BotRightOffset" v:prompt="" v:val="VT0(0):26"/>
				<v:ud v:nameU="visVersion" v:prompt="" v:val="VT0(15):26"/>
			</v:userDefs>
			<v:textBlock v:margins="rect(3.99999,3.99999,3.99999,3.99999)" v:tabSpace="42.5196"/>
			<v:textRect cx="109.843" cy="1104.94" width="219.69" height="99.2125"/>
			<g id="shadow93-60" v:groupContext="shadow" v:shadowOffsetX="0.345598" v:shadowOffsetY="-1.97279" v:shadowType="1"
					transform="matrix(1,0,0,1,0.345598,1.97279)" class="st1">
				<path d="M21.97 1154.55 L197.72 1154.55 A21.9681 21.9681 -180 0 0 219.69 1132.58 L219.69 1077.31 A21.9681 21.9681
							 -180 0 0 197.72 1055.34 L21.97 1055.34 A21.9681 21.9681 -180 0 0 -0 1077.31 L0 1132.58 A21.9681 21.9681
							 -180 0 0 21.97 1154.55 Z" class="st8"/>
			</g>
			<path d="M21.97 1154.55 L197.72 1154.55 A21.9681 21.9681 -180 0 0 219.69 1132.58 L219.69 1077.31 A21.9681 21.9681 -180
						 0 0 197.72 1055.34 L21.97 1055.34 A21.9681 21.9681 -180 0 0 -0 1077.31 L0 1132.58 A21.9681 21.9681 -180
						 0 0 21.97 1154.55 Z" class="st14"/>
			<text x="21.57" y="1112.14" class="st13" v:langID="1049"><v:paragraph v:horizAlign="1"/><v:tabList/>График сгорания</text>		</g>
		<g id="shape94-65" v:mID="94" v:groupContext="shape" transform="translate(65.55,-1000.87)">
			<title>Скругленный прямоугольник.92</title>
			<desc>Календарь</desc>
			<v:userDefs>
				<v:ud v:nameU="CTypeTopLeftSnip" v:prompt="" v:val="VT0(0):5"/>
				<v:ud v:nameU="CTypeTopRightSnip" v:prompt="" v:val="VT0(0):5"/>
				<v:ud v:nameU="CTypeBotLeftSnip" v:prompt="" v:val="VT0(0):5"/>
				<v:ud v:nameU="CTypeBotRightSnip" v:prompt="" v:val="VT0(0):5"/>
				<v:ud v:nameU="CornerLockHoriz" v:prompt="" v:val="VT0(1):5"/>
				<v:ud v:nameU="CornerLockVert" v:prompt="" v:val="VT0(1):5"/>
				<v:ud v:nameU="CornerLockDiag" v:prompt="" v:val="VT0(0):5"/>
				<v:ud v:nameU="TopLeftOffset" v:prompt="" v:val="VT0(0):26"/>
				<v:ud v:nameU="TopRightOffset" v:prompt="" v:val="VT0(0):26"/>
				<v:ud v:nameU="BotLeftOffset" v:prompt="" v:val="VT0(0):26"/>
				<v:ud v:nameU="BotRightOffset" v:prompt="" v:val="VT0(0):26"/>
				<v:ud v:nameU="visVersion" v:prompt="" v:val="VT0(15):26"/>
			</v:userDefs>
			<v:textBlock v:margins="rect(3.99999,3.99999,3.99999,3.99999)" v:tabSpace="42.5196"/>
			<v:textRect cx="52.44" cy="1130.92" width="104.89" height="47.2453"/>
			<g id="shadow94-66" v:groupContext="shadow" v:shadowOffsetX="0.345598" v:shadowOffsetY="-1.97279" v:shadowType="1"
					transform="matrix(1,0,0,1,0.345598,1.97279)" class="st1">
				<path d="M10.49 1154.55 L94.39 1154.55 A10.4878 10.4613 -180 0 0 104.88 1144.09 L104.88 1117.77 A10.4878 10.4613
							 -180 0 0 94.39 1107.3 L10.49 1107.3 A10.4878 10.4613 -180 0 0 -0 1117.77 L0 1144.09 A10.4878 10.4613
							 -180 0 0 10.49 1154.55 Z" class="st8"/>
			</g>
			<path d="M10.49 1154.55 L94.39 1154.55 A10.4878 10.4613 -180 0 0 104.88 1144.09 L104.88 1117.77 A10.4878 10.4613 -180
						 0 0 94.39 1107.3 L10.49 1107.3 A10.4878 10.4613 -180 0 0 -0 1117.77 L0 1144.09 A10.4878 10.4613 -180 0 0
						 10.49 1154.55 Z" class="st12"/>
			<text x="25.61" y="1136.32" class="st15" v:langID="1049"><v:paragraph v:horizAlign="1"/><v:tabList/>Строка</text>		</g>
		<g id="shape95-71" v:mID="95" v:groupContext="shape" transform="translate(178.936,-999.923)">
			<title>Скругленный прямоугольник.93</title>
			<desc>Сетевой график</desc>
			<v:userDefs>
				<v:ud v:nameU="CTypeTopLeftSnip" v:prompt="" v:val="VT0(0):5"/>
				<v:ud v:nameU="CTypeTopRightSnip" v:prompt="" v:val="VT0(0):5"/>
				<v:ud v:nameU="CTypeBotLeftSnip" v:prompt="" v:val="VT0(0):5"/>
				<v:ud v:nameU="CTypeBotRightSnip" v:prompt="" v:val="VT0(0):5"/>
				<v:ud v:nameU="CornerLockHoriz" v:prompt="" v:val="VT0(1):5"/>
				<v:ud v:nameU="CornerLockVert" v:prompt="" v:val="VT0(1):5"/>
				<v:ud v:nameU="CornerLockDiag" v:prompt="" v:val="VT0(0):5"/>
				<v:ud v:nameU="TopLeftOffset" v:prompt="" v:val="VT0(0):26"/>
				<v:ud v:nameU="TopRightOffset" v:prompt="" v:val="VT0(0):26"/>
				<v:ud v:nameU="BotLeftOffset" v:prompt="" v:val="VT0(0):26"/>
				<v:ud v:nameU="BotRightOffset" v:prompt="" v:val="VT0(0):26"/>
				<v:ud v:nameU="visVersion" v:prompt="" v:val="VT0(15):26"/>
			</v:userDefs>
			<v:textBlock v:margins="rect(3.99999,3.99999,3.99999,3.99999)" v:tabSpace="42.5196"/>
			<v:textRect cx="53.1486" cy="1130.45" width="106.3" height="48.1875"/>
			<g id="shadow95-72" v:groupContext="shadow" v:shadowOffsetX="0.345598" v:shadowOffsetY="-1.97279" v:shadowType="1"
					transform="matrix(1,0,0,1,0.345598,1.97279)" class="st1">
				<path d="M10.63 1154.55 L95.67 1154.55 A10.6295 10.6699 -180 0 0 106.3 1143.88 L106.3 1117.03 A10.6295 10.6699 -180
							 0 0 95.67 1106.36 L10.63 1106.36 A10.6295 10.6699 -180 0 0 -0 1117.03 L0 1143.88 A10.6295 10.6699 -180
							 0 0 10.63 1154.55 Z" class="st8"/>
			</g>
			<path d="M10.63 1154.55 L95.67 1154.55 A10.6295 10.6699 -180 0 0 106.3 1143.88 L106.3 1117.03 A10.6295 10.6699 -180 0
						 0 95.67 1106.36 L10.63 1106.36 A10.6295 10.6699 -180 0 0 -0 1117.03 L0 1143.88 A10.6295 10.6699 -180 0 0
						 10.63 1154.55 Z" class="st12"/>
			<text x="15.14" y="1135.85" class="st15" v:langID="1049"><v:paragraph v:horizAlign="1"/><v:tabList/>Обычный</text>		</g>
		<g id="shape96-77" v:mID="96" v:groupContext="shape" transform="translate(313.582,-999.923)">
			<title>Скругленный прямоугольник.130</title>
			<desc>Сетевой график</desc>
			<v:userDefs>
				<v:ud v:nameU="CTypeTopLeftSnip" v:prompt="" v:val="VT0(0):5"/>
				<v:ud v:nameU="CTypeTopRightSnip" v:prompt="" v:val="VT0(0):5"/>
				<v:ud v:nameU="CTypeBotLeftSnip" v:prompt="" v:val="VT0(0):5"/>
				<v:ud v:nameU="CTypeBotRightSnip" v:prompt="" v:val="VT0(0):5"/>
				<v:ud v:nameU="CornerLockHoriz" v:prompt="" v:val="VT0(1):5"/>
				<v:ud v:nameU="CornerLockVert" v:prompt="" v:val="VT0(1):5"/>
				<v:ud v:nameU="CornerLockDiag" v:prompt="" v:val="VT0(0):5"/>
				<v:ud v:nameU="TopLeftOffset" v:prompt="" v:val="VT0(0):26"/>
				<v:ud v:nameU="TopRightOffset" v:prompt="" v:val="VT0(0):26"/>
				<v:ud v:nameU="BotLeftOffset" v:prompt="" v:val="VT0(0):26"/>
				<v:ud v:nameU="BotRightOffset" v:prompt="" v:val="VT0(0):26"/>
				<v:ud v:nameU="visVersion" v:prompt="" v:val="VT0(15):26"/>
			</v:userDefs>
			<v:textBlock v:margins="rect(3.99999,3.99999,3.99999,3.99999)" v:tabSpace="42.5196"/>
			<v:textRect cx="108.955" cy="1130.45" width="217.92" height="48.1875"/>
			<g id="shadow96-78" v:groupContext="shadow" v:shadowOffsetX="0.345598" v:shadowOffsetY="-1.97279" v:shadowType="1"
					transform="matrix(1,0,0,1,0.345598,1.97279)" class="st1">
				<path d="M21.79 1154.55 L196.12 1154.55 A21.7906 10.6699 -180 0 0 217.91 1143.88 L217.91 1117.03 A21.7906 10.6699
							 -180 0 0 196.12 1106.36 L21.79 1106.36 A21.7906 10.6699 -180 0 0 -0 1117.03 L0 1143.88 A21.7906 10.6699
							 -180 0 0 21.79 1154.55 Z" class="st8"/>
			</g>
			<path d="M21.79 1154.55 L196.12 1154.55 A21.7906 10.6699 -180 0 0 217.91 1143.88 L217.91 1117.03 A21.7906 10.6699 -180
						 0 0 196.12 1106.36 L21.79 1106.36 A21.7906 10.6699 -180 0 0 -0 1117.03 L0 1143.88 A21.7906 10.6699 -180
						 0 0 21.79 1154.55 Z" class="st12"/>
			<text x="44.09" y="1135.85" class="st15" v:langID="1049"><v:paragraph v:horizAlign="1"/><v:tabList/>Категории работ</text>		</g>
		<g id="shape99-83" v:mID="99" v:groupContext="shape" transform="translate(566.929,-999.923)">
			<title>Скругленный прямоугольник.133</title>
			<desc>Сетевой график</desc>
			<v:userDefs>
				<v:ud v:nameU="CTypeTopLeftSnip" v:prompt="" v:val="VT0(0):5"/>
				<v:ud v:nameU="CTypeTopRightSnip" v:prompt="" v:val="VT0(0):5"/>
				<v:ud v:nameU="CTypeBotLeftSnip" v:prompt="" v:val="VT0(0):5"/>
				<v:ud v:nameU="CTypeBotRightSnip" v:prompt="" v:val="VT0(0):5"/>
				<v:ud v:nameU="CornerLockHoriz" v:prompt="" v:val="VT0(1):5"/>
				<v:ud v:nameU="CornerLockVert" v:prompt="" v:val="VT0(1):5"/>
				<v:ud v:nameU="CornerLockDiag" v:prompt="" v:val="VT0(0):5"/>
				<v:ud v:nameU="TopLeftOffset" v:prompt="" v:val="VT0(0):26"/>
				<v:ud v:nameU="TopRightOffset" v:prompt="" v:val="VT0(0):26"/>
				<v:ud v:nameU="BotLeftOffset" v:prompt="" v:val="VT0(0):26"/>
				<v:ud v:nameU="BotRightOffset" v:prompt="" v:val="VT0(0):26"/>
				<v:ud v:nameU="visVersion" v:prompt="" v:val="VT0(15):26"/>
			</v:userDefs>
			<v:textBlock v:margins="rect(3.99999,3.99999,3.99999,3.99999)" v:tabSpace="42.5196"/>
			<v:textRect cx="108.954" cy="1130.45" width="217.92" height="48.1875"/>
			<g id="shadow99-84" v:groupContext="shadow" v:shadowOffsetX="0.345598" v:shadowOffsetY="-1.97279" v:shadowType="1"
					transform="matrix(1,0,0,1,0.345598,1.97279)" class="st1">
				<path d="M21.79 1154.55 L196.12 1154.55 A21.7903 10.6699 -180 0 0 217.91 1143.88 L217.91 1117.03 A21.7903 10.6699
							 -180 0 0 196.12 1106.36 L21.79 1106.36 A21.7903 10.6699 -180 0 0 -0 1117.03 L0 1143.88 A21.7903 10.6699
							 -180 0 0 21.79 1154.55 Z" class="st8"/>
			</g>
			<path d="M21.79 1154.55 L196.12 1154.55 A21.7903 10.6699 -180 0 0 217.91 1143.88 L217.91 1117.03 A21.7903 10.6699 -180
						 0 0 196.12 1106.36 L21.79 1106.36 A21.7903 10.6699 -180 0 0 -0 1117.03 L0 1143.88 A21.7903 10.6699 -180
						 0 0 21.79 1154.55 Z" class="st12"/>
			<text x="63.19" y="1135.85" class="st15" v:langID="1049"><v:paragraph v:horizAlign="1"/><v:tabList/>Материалы</text>		</g>
		<g id="shape174-89" v:mID="174" v:groupContext="shape" transform="translate(1407.54,233.289) rotate(90)">
			<title>Линия графика.174</title>
			<v:userDefs>
				<v:ud v:nameU="visVersion" v:val="VT0(15):26"/>
			</v:userDefs>
			<path d="M0 1154.55 L42.52 1154.55 A2.12598 2.12598 -180 0 0 42.52 1150.3 L0 1150.3 A2.12598 2.12598 -180 1 0 0 1154.55
						 Z" class="st16"/>
		</g>
		<g id="shape175-91" v:mID="175" v:groupContext="shape" transform="translate(255.118,-876.614)">
			<title>Линия графика.175</title>
			<v:userDefs>
				<v:ud v:nameU="visVersion" v:val="VT0(15):26"/>
			</v:userDefs>
			<path d="M0 1154.55 L56.69 1154.55 A2.12598 2.12598 -180 0 0 56.69 1150.3 L0 1150.3 A2.12598 2.12598 -180 1 0 0 1154.55
						 Z" class="st16"/>
		</g>
		<g id="shape176-93" v:mID="176" v:groupContext="shape" transform="translate(1464.23,275.809) rotate(90)">
			<title>Линия графика.176</title>
			<v:userDefs>
				<v:ud v:nameU="visVersion" v:val="VT0(15):26"/>
			</v:userDefs>
			<path d="M0 1154.55 L42.52 1154.55 A2.12598 2.12598 -180 0 0 42.52 1150.3 L0 1150.3 A2.12598 2.12598 -180 1 0 0 1154.55
						 Z" class="st16"/>
		</g>
		<g id="shape177-95" v:mID="177" v:groupContext="shape" transform="translate(1520.93,318.328) rotate(90)">
			<title>Линия графика.177</title>
			<v:userDefs>
				<v:ud v:nameU="visVersion" v:val="VT0(15):26"/>
			</v:userDefs>
			<path d="M0 1154.55 L42.52 1154.55 A2.12598 2.12598 -180 1 0 42.52 1150.3 L0 1150.3 A2.12598 2.12598 -180 1 0 0 1154.55
						 Z" class="st16"/>
		</g>
		<g id="shape178-97" v:mID="178" v:groupContext="shape" transform="translate(198.425,-919.134)">
			<title>Линия графика.178</title>
			<v:userDefs>
				<v:ud v:nameU="visVersion" v:val="VT0(15):26"/>
			</v:userDefs>
			<path d="M0 1154.55 L56.69 1154.55 A2.12598 2.12598 -180 0 0 56.69 1150.3 L0 1150.3 A2.12598 2.12598 -180 1 0 0 1154.55
						 Z" class="st16"/>
		</g>
		<g id="shape179-99" v:mID="179" v:groupContext="shape" transform="translate(311.811,-834.094)">
			<title>Линия графика.179</title>
			<v:userDefs>
				<v:ud v:nameU="visVersion" v:val="VT0(15):26"/>
			</v:userDefs>
			<path d="M0 1154.55 L56.69 1154.55 A2.12598 2.12598 -180 0 0 56.69 1150.3 L0 1150.3 A2.12598 2.12598 -180 1 0 0 1154.55
						 Z" class="st16"/>
		</g>
		<g id="shape180-101" v:mID="180" v:groupContext="shape" transform="translate(368.504,-791.575)">
			<title>Линия графика.180</title>
			<v:userDefs>
				<v:ud v:nameU="visVersion" v:val="VT0(15):26"/>
			</v:userDefs>
			<path d="M0 1154.55 L56.69 1154.55 A2.12598 2.12598 -180 0 0 56.69 1150.3 L0 1150.3 A2.12598 2.12598 -180 1 0 0 1154.55
						 Z" class="st16"/>
		</g>
		<g id="shape181-103" v:mID="181" v:groupContext="shape" transform="translate(1577.62,360.848) rotate(90)">
			<title>Линия графика.181</title>
			<v:userDefs>
				<v:ud v:nameU="visVersion" v:val="VT0(15):26"/>
			</v:userDefs>
			<path d="M0 1154.55 L42.52 1154.55 A2.12598 2.12598 -180 0 0 42.52 1150.3 L0 1150.3 A2.12598 2.12598 -180 1 0 0 1154.55
						 Z" class="st16"/>
		</g>
		<g id="shape182-105" v:mID="182" v:groupContext="shape" transform="translate(425.197,-749.055)">
			<title>Линия графика.182</title>
			<v:userDefs>
				<v:ud v:nameU="visVersion" v:val="VT0(15):26"/>
			</v:userDefs>
			<path d="M0 1154.55 L56.69 1154.55 A2.12598 2.12598 -180 0 0 56.69 1150.3 L0 1150.3 A2.12598 2.12598 -180 1 0 0 1154.55
						 Z" class="st16"/>
		</g>
		<g id="shape183-107" v:mID="183" v:groupContext="shape" transform="translate(1634.31,403.368) rotate(90)">
			<title>Линия графика.183</title>
			<v:userDefs>
				<v:ud v:nameU="visVersion" v:val="VT0(15):26"/>
			</v:userDefs>
			<path d="M0 1154.55 L42.52 1154.55 A2.12598 2.12598 -180 1 0 42.52 1150.3 L0 1150.3 A2.12598 2.12598 -180 1 0 0 1154.55
						 Z" class="st16"/>
		</g>
		<g id="shape184-109" v:mID="184" v:groupContext="shape" transform="translate(481.89,-706.535)">
			<title>Линия графика.184</title>
			<v:userDefs>
				<v:ud v:nameU="visVersion" v:val="VT0(15):26"/>
			</v:userDefs>
			<path d="M0 1154.55 L56.69 1154.55 A2.12598 2.12598 -180 0 0 56.69 1150.3 L0 1150.3 A2.12598 2.12598 -180 1 0 0 1154.55
						 Z" class="st16"/>
		</g>
		<g id="shape185-111" v:mID="185" v:groupContext="shape" transform="translate(1691.01,445.887) rotate(90)">
			<title>Линия графика.185</title>
			<v:userDefs>
				<v:ud v:nameU="visVersion" v:val="VT0(15):26"/>
			</v:userDefs>
			<path d="M0 1154.55 L42.52 1154.55 A2.12598 2.12598 -180 0 0 42.52 1150.3 L0 1150.3 A2.12598 2.12598 -180 1 0 0 1154.55
						 Z" class="st16"/>
		</g>
		<g id="shape186-113" v:mID="186" v:groupContext="shape" transform="translate(538.583,-664.016)">
			<title>Линия графика.186</title>
			<v:userDefs>
				<v:ud v:nameU="visVersion" v:val="VT0(15):26"/>
			</v:userDefs>
			<path d="M0 1154.55 L56.69 1154.55 A2.12598 2.12598 -180 0 0 56.69 1150.3 L0 1150.3 A2.12598 2.12598 -180 1 0 0 1154.55
						 Z" class="st16"/>
		</g>
		<g id="shape187-115" v:mID="187" v:groupContext="shape" transform="translate(1747.7,488.407) rotate(90)">
			<title>Линия графика.187</title>
			<v:userDefs>
				<v:ud v:nameU="visVersion" v:val="VT0(15):26"/>
			</v:userDefs>
			<path d="M0 1154.55 L42.52 1154.55 A2.12598 2.12598 -180 1 0 42.52 1150.3 L0 1150.3 A2.12598 2.12598 -180 1 0 0 1154.55
						 Z" class="st16"/>
		</g>
		<g id="shape188-117" v:mID="188" v:groupContext="shape" transform="translate(1464.23,233.289) rotate(90)">
			<title>Линия графика.188</title>
			<v:userDefs>
				<v:ud v:nameU="visVersion" v:val="VT0(15):26"/>
			</v:userDefs>
			<path d="M0 1154.55 L42.52 1154.55 A2.12598 2.12598 -180 0 0 42.52 1150.3 L0 1150.3 A2.12598 2.12598 -180 1 0 0 1154.55
						 Z" class="st17"/>
		</g>
		<g id="shape192-119" v:mID="192" v:groupContext="shape" transform="translate(255.118,-919.134)">
			<title>Линия графика.192</title>
			<v:userDefs>
				<v:ud v:nameU="visVersion" v:val="VT0(15):26"/>
			</v:userDefs>
			<path d="M0 1154.55 L56.69 1154.55 A2.12598 2.12598 -180 0 0 56.69 1150.3 L0 1150.3 A2.12598 2.12598 -180 1 0 0 1154.55
						 Z" class="st17"/>
		</g>
		<g id="shape198-121" v:mID="198" v:groupContext="shape" transform="translate(538.583,-706.535)">
			<title>Линия графика.198</title>
			<v:userDefs>
				<v:ud v:nameU="visVersion" v:val="VT0(15):26"/>
			</v:userDefs>
			<path d="M0 1154.55 L56.69 1154.55 A2.12598 2.12598 -180 0 0 56.69 1150.3 L0 1150.3 A2.12598 2.12598 -180 1 0 0 1154.55
						 Z" class="st17"/>
		</g>
		<g id="shape199-123" v:mID="199" v:groupContext="shape" transform="translate(1747.7,445.887) rotate(90)">
			<title>Линия графика.199</title>
			<v:userDefs>
				<v:ud v:nameU="visVersion" v:val="VT0(15):26"/>
			</v:userDefs>
			<path d="M0 1154.55 L42.52 1154.55 A2.12598 2.12598 -180 0 0 42.52 1150.3 L0 1150.3 A2.12598 2.12598 -180 1 0 0 1154.55
						 Z" class="st17"/>
		</g>
		<g id="shape200-125" v:mID="200" v:groupContext="shape" transform="translate(595.276,-664.016)">
			<title>Линия графика.200</title>
			<v:userDefs>
				<v:ud v:nameU="visVersion" v:val="VT0(15):26"/>
			</v:userDefs>
			<path d="M0 1154.55 L56.69 1154.55 A2.12598 2.12598 -180 0 0 56.69 1150.3 L0 1150.3 A2.12598 2.12598 -180 1 0 0 1154.55
						 Z" class="st17"/>
		</g>
		<g id="shape201-127" v:mID="201" v:groupContext="shape" transform="translate(1804.39,488.407) rotate(90)">
			<title>Линия графика.201</title>
			<v:userDefs>
				<v:ud v:nameU="visVersion" v:val="VT0(15):26"/>
			</v:userDefs>
			<path d="M0 1154.55 L42.52 1154.55 A2.12598 2.12598 -180 0 0 42.52 1150.3 L0 1150.3 A2.12598 2.12598 -180 1 0 0 1154.55
						 Z" class="st17"/>
		</g>
		<g id="shape202-129" v:mID="202" v:groupContext="shape" transform="translate(294.094,-861.024)">
			<title>Круг</title>
			<v:userDefs>
				<v:ud v:nameU="visVersion" v:val="VT0(15):26"/>
			</v:userDefs>
			<g id="shadow202-130" v:groupContext="shadow" v:shadowOffsetX="0.345598" v:shadowOffsetY="-1.97279" v:shadowType="1"
					transform="matrix(1,0,0,1,0.345598,1.97279)" class="st1">
				<path d="M0 1136.83 A17.7165 17.7165 0 0 1 35.43 1136.83 A17.7165 17.7165 0 1 1 0 1136.83 Z" class="st8"/>
			</g>
			<path d="M0 1136.83 A17.7165 17.7165 0 0 1 35.43 1136.83 A17.7165 17.7165 0 1 1 0 1136.83 Z" class="st12"/>
		</g>
		<g id="shape203-134" v:mID="203" v:groupContext="shape" transform="translate(350.787,-775.984)">
			<title>Круг.203</title>
			<v:userDefs>
				<v:ud v:nameU="visVersion" v:val="VT0(15):26"/>
			</v:userDefs>
			<g id="shadow203-135" v:groupContext="shadow" v:shadowOffsetX="0.345598" v:shadowOffsetY="-1.97279" v:shadowType="1"
					transform="matrix(1,0,0,1,0.345598,1.97279)" class="st1">
				<path d="M0 1136.83 A17.7165 17.7165 0 0 1 35.43 1136.83 A17.7165 17.7165 0 1 1 0 1136.83 Z" class="st8"/>
			</g>
			<path d="M0 1136.83 A17.7165 17.7165 0 0 1 35.43 1136.83 A17.7165 17.7165 0 1 1 0 1136.83 Z" class="st12"/>
		</g>
		<g id="shape204-139" v:mID="204" v:groupContext="shape" transform="translate(407.48,-733.465)">
			<title>Круг.204</title>
			<v:userDefs>
				<v:ud v:nameU="visVersion" v:val="VT0(15):26"/>
			</v:userDefs>
			<g id="shadow204-140" v:groupContext="shadow" v:shadowOffsetX="0.345598" v:shadowOffsetY="-1.97279" v:shadowType="1"
					transform="matrix(1,0,0,1,0.345598,1.97279)" class="st1">
				<path d="M0 1136.83 A17.7165 17.7165 0 0 1 35.43 1136.83 A17.7165 17.7165 0 1 1 0 1136.83 Z" class="st8"/>
			</g>
			<path d="M0 1136.83 A17.7165 17.7165 0 0 1 35.43 1136.83 A17.7165 17.7165 0 1 1 0 1136.83 Z" class="st12"/>
		</g>
		<g id="shape205-144" v:mID="205" v:groupContext="shape" transform="translate(464.173,-690.945)">
			<title>Круг.205</title>
			<v:userDefs>
				<v:ud v:nameU="visVersion" v:val="VT0(15):26"/>
			</v:userDefs>
			<g id="shadow205-145" v:groupContext="shadow" v:shadowOffsetX="0.345598" v:shadowOffsetY="-1.97279" v:shadowType="1"
					transform="matrix(1,0,0,1,0.345598,1.97279)" class="st1">
				<path d="M0 1136.83 A17.7165 17.7165 0 0 1 35.43 1136.83 A17.7165 17.7165 0 1 1 0 1136.83 Z" class="st8"/>
			</g>
			<path d="M0 1136.83 A17.7165 17.7165 0 0 1 35.43 1136.83 A17.7165 17.7165 0 1 1 0 1136.83 Z" class="st12"/>
		</g>
		<g id="shape206-149" v:mID="206" v:groupContext="shape" transform="translate(577.559,-648.425)">
			<title>Круг.206</title>
			<v:userDefs>
				<v:ud v:nameU="visVersion" v:val="VT0(15):26"/>
			</v:userDefs>
			<g id="shadow206-150" v:groupContext="shadow" v:shadowOffsetX="0.345598" v:shadowOffsetY="-1.97279" v:shadowType="1"
					transform="matrix(1,0,0,1,0.345598,1.97279)" class="st1">
				<path d="M0 1136.83 A17.7165 17.7165 0 0 1 35.43 1136.83 A17.7165 17.7165 0 1 1 0 1136.83 Z" class="st8"/>
			</g>
			<path d="M0 1136.83 A17.7165 17.7165 0 0 1 35.43 1136.83 A17.7165 17.7165 0 1 1 0 1136.83 Z" class="st12"/>
		</g>
		<g id="shape207-154" v:mID="207" v:groupContext="shape" transform="translate(634.252,-605.906)">
			<title>Круг.207</title>
			<v:userDefs>
				<v:ud v:nameU="visVersion" v:val="VT0(15):26"/>
			</v:userDefs>
			<g id="shadow207-155" v:groupContext="shadow" v:shadowOffsetX="0.345598" v:shadowOffsetY="-1.97279" v:shadowType="1"
					transform="matrix(1,0,0,1,0.345598,1.97279)" class="st1">
				<path d="M0 1136.83 A17.7165 17.7165 0 0 1 35.43 1136.83 A17.7165 17.7165 0 1 1 0 1136.83 Z" class="st8"/>
			</g>
			<path d="M0 1136.83 A17.7165 17.7165 0 0 1 35.43 1136.83 A17.7165 17.7165 0 1 1 0 1136.83 Z" class="st12"/>
		</g>
		<g id="shape208-159" v:mID="208" v:groupContext="shape" transform="translate(520.866,-648.425)">
			<title>Круг.208</title>
			<v:userDefs>
				<v:ud v:nameU="visVersion" v:val="VT0(15):26"/>
			</v:userDefs>
			<g id="shadow208-160" v:groupContext="shadow" v:shadowOffsetX="0.345598" v:shadowOffsetY="-1.97279" v:shadowType="1"
					transform="matrix(1,0,0,1,0.345598,1.97279)" class="st1">
				<path d="M0 1136.83 A17.7165 17.7165 0 0 1 35.43 1136.83 A17.7165 17.7165 0 1 1 0 1136.83 Z" class="st8"/>
			</g>
			<path d="M0 1136.83 A17.7165 17.7165 0 0 1 35.43 1136.83 A17.7165 17.7165 0 1 1 0 1136.83 Z" class="st12"/>
		</g>
		<g id="shape209-164" v:mID="209" v:groupContext="shape" transform="translate(294.094,-818.504)">
			<title>Круг.209</title>
			<v:userDefs>
				<v:ud v:nameU="visVersion" v:val="VT0(15):26"/>
			</v:userDefs>
			<g id="shadow209-165" v:groupContext="shadow" v:shadowOffsetX="0.345598" v:shadowOffsetY="-1.97279" v:shadowType="1"
					transform="matrix(1,0,0,1,0.345598,1.97279)" class="st1">
				<path d="M0 1136.83 A17.7165 17.7165 0 0 1 35.43 1136.83 A17.7165 17.7165 0 1 1 0 1136.83 Z" class="st8"/>
			</g>
			<path d="M0 1136.83 A17.7165 17.7165 0 0 1 35.43 1136.83 A17.7165 17.7165 0 1 1 0 1136.83 Z" class="st12"/>
		</g>
		<g id="shape210-169" v:mID="210" v:groupContext="shape" transform="translate(237.402,-861.024)">
			<title>Круг.210</title>
			<v:userDefs>
				<v:ud v:nameU="visVersion" v:val="VT0(15):26"/>
			</v:userDefs>
			<g id="shadow210-170" v:groupContext="shadow" v:shadowOffsetX="0.345598" v:shadowOffsetY="-1.97279" v:shadowType="1"
					transform="matrix(1,0,0,1,0.345598,1.97279)" class="st1">
				<path d="M0 1136.83 A17.7165 17.7165 0 0 1 35.43 1136.83 A17.7165 17.7165 0 1 1 0 1136.83 Z" class="st8"/>
			</g>
			<path d="M0 1136.83 A17.7165 17.7165 0 0 1 35.43 1136.83 A17.7165 17.7165 0 1 1 0 1136.83 Z" class="st12"/>
		</g>
		<g id="shape211-174" v:mID="211" v:groupContext="shape" transform="translate(577.559,-605.906)">
			<title>Круг.211</title>
			<v:userDefs>
				<v:ud v:nameU="visVersion" v:val="VT0(15):26"/>
			</v:userDefs>
			<g id="shadow211-175" v:groupContext="shadow" v:shadowOffsetX="0.345598" v:shadowOffsetY="-1.97279" v:shadowType="1"
					transform="matrix(1,0,0,1,0.345598,1.97279)" class="st1">
				<path d="M0 1136.83 A17.7165 17.7165 0 0 1 35.43 1136.83 A17.7165 17.7165 0 1 1 0 1136.83 Z" class="st8"/>
			</g>
			<path d="M0 1136.83 A17.7165 17.7165 0 0 1 35.43 1136.83 A17.7165 17.7165 0 1 1 0 1136.83 Z" class="st12"/>
		</g>
		<g id="group212-179" transform="translate(-487.699,600.944) rotate(-90)" v:mID="212" v:groupContext="group">
			<v:userDefs>
				<v:ud v:nameU="visVersion" v:val="VT0(15):26"/>
			</v:userDefs>
			<title>Простая односторонняя</title>
			<g id="shape213-180" v:mID="213" v:groupContext="shape">
				<title>Лист.213</title>
				<path d="M0 1148.88 L14.17 1148.88 L14.17 1154.55 L19.84 1143.21 L14.17 1131.87 L14.17 1137.54 L0 1137.54 L0 1148.88
							 Z" class="st18"/>
				<path d="M0 1148.88 L14.17 1148.88 L14.17 1154.55 L19.84 1143.21 L14.17 1131.87 L14.17 1137.54 L0 1137.54"
						class="st19"/>
			</g>
			<g id="shape214-183" v:mID="214" v:groupContext="shape">
				<title>Лист.214</title>
				<path d="M0 1148.88 L14.17 1148.88 L14.17 1154.55 L19.84 1143.21 L14.17 1131.87 L14.17 1137.54 L0 1137.54 L0 1148.88"
						class="st20"/>
			</g>
			<g id="shape215-186" v:mID="215" v:groupContext="shape" transform="translate(-0.254425,-5.76529)">
				<title>Лист.215</title>
				<rect x="0" y="1143.4" width="0.112" height="11.1466" class="st21"/>
			</g>
		</g>
		<g id="group216-188" transform="translate(-540.011,1099.28) rotate(-135)" v:mID="216" v:groupContext="group">
			<v:userDefs>
				<v:ud v:nameU="visVersion" v:val="VT0(15):26"/>
			</v:userDefs>
			<title>Простая односторонняя.216</title>
			<g id="shape217-189" v:mID="217" v:groupContext="shape">
				<title>Лист.217</title>
				<path d="M0 1149.54 L15.03 1149.54 L15.03 1154.55 L20.04 1144.53 L15.03 1134.5 L15.03 1139.52 L0 1139.52 L0 1149.54
							 Z" class="st22"/>
				<path d="M0 1149.54 L15.03 1149.54 L15.03 1154.55 L20.04 1144.53 L15.03 1134.5 L15.03 1139.52 L0 1139.52"
						class="st19"/>
			</g>
			<g id="shape218-192" v:mID="218" v:groupContext="shape">
				<title>Лист.218</title>
				<path d="M0 1149.54 L15.03 1149.54 L15.03 1154.55 L20.04 1144.53 L15.03 1134.5 L15.03 1139.52 L0 1139.52 L0 1149.54"
						class="st20"/>
			</g>
			<g id="shape219-195" v:mID="219" v:groupContext="shape" transform="translate(-0.257008,-5.09585)">
				<title>Лист.219</title>
				<rect x="0" y="1144.7" width="0.113137" height="9.85228" class="st21"/>
			</g>
		</g>
		<g id="shape220-197" v:mID="220" v:groupContext="shape" transform="translate(269.291,-772.441)">
			<title>Поле</title>
			<desc>Количество: 1 Название: сходить за молоком Выполнить к: 04.10...</desc>
			<v:userDefs>
				<v:ud v:nameU="visVersion" v:val="VT0(15):26"/>
			</v:userDefs>
			<v:textBlock v:margins="rect(4,4,4,4)" v:verticalAlign="0"/>
			<v:textRect cx="85.0394" cy="1112.03" width="170.08" height="85.0394"/>
			<rect x="0" y="1069.51" width="170.079" height="85.0394" class="st23"/>
			<text x="4" y="1084.31" class="st24" v:langID="1049"><v:paragraph/><v:tabList/>Количество: 1<v:newlineChar/><tspan
						x="4" dy="1.2em" class="st5">Название</tspan>: сходить за молоком<v:newlineChar/><tspan x="4" dy="1.2em"
						class="st5">Выполнить к</tspan>: 04.10.2014<v:newlineChar/><tspan x="4" dy="1.2em" class="st5">Комментарий</tspan>: не забудь <tspan
						x="4" dy="1.2em" class="st5">посмотреть дату изготовления</tspan></text>		</g>
	</g>
</svg>
